<svg xmlns="http://www.w3.org/2000/svg" viewBox="0 0 760 358" width="760" height="358"
     role="img" aria-labelledby="vcTitle vcDesc" font-family="Source Serif 4, Georgia, serif">
  <title id="vcTitle">Colour copied through a learned pointer</title>
  <desc id="vcDesc">A colour reference frame grid beside a grayscale target frame grid, with an arrow from one target cell to the reference cell it matches, and below a four-stage pipeline from CNN embeddings through a softmax similarity to a weighted sum of reference colours.</desc>
  <text x="20.0" y="26.0" font-size="12.5" fill="currentColor" text-anchor="start">Reference frame, in colour</text>
  <text x="268.0" y="26.0" font-size="12.5" fill="currentColor" text-anchor="start">Target frame, grayscale</text>
  <rect x="30.0" y="44.0" width="27.0" height="27.0" fill="#440154" fill-opacity="0.4" stroke="currentColor" stroke-width="0.7" stroke-opacity="0.3" rx="2"/>
  <rect x="268.0" y="44.0" width="27.0" height="27.0" fill="#1b1b1b" fill-opacity="0.1" stroke="currentColor" stroke-width="0.7" stroke-opacity="0.3" rx="2"/>
  <rect x="60.0" y="44.0" width="27.0" height="27.0" fill="#21918c" fill-opacity="0.4" stroke="currentColor" stroke-width="0.7" stroke-opacity="0.3" rx="2"/>
  <rect x="298.0" y="44.0" width="27.0" height="27.0" fill="#1b1b1b" fill-opacity="0.13" stroke="currentColor" stroke-width="0.7" stroke-opacity="0.3" rx="2"/>
  <rect x="90.0" y="44.0" width="27.0" height="27.0" fill="#fde725" fill-opacity="0.4" stroke="currentColor" stroke-width="0.7" stroke-opacity="0.3" rx="2"/>
  <rect x="328.0" y="44.0" width="27.0" height="27.0" fill="#1b1b1b" fill-opacity="0.16" stroke="currentColor" stroke-width="0.7" stroke-opacity="0.3" rx="2"/>
  <rect x="120.0" y="44.0" width="27.0" height="27.0" fill="#3b528b" fill-opacity="0.4" stroke="currentColor" stroke-width="0.7" stroke-opacity="0.3" rx="2"/>
  <rect x="358.0" y="44.0" width="27.0" height="27.0" fill="#1b1b1b" fill-opacity="0.1" stroke="currentColor" stroke-width="0.7" stroke-opacity="0.3" rx="2"/>
  <rect x="150.0" y="44.0" width="27.0" height="27.0" fill="#5ec962" fill-opacity="0.4" stroke="currentColor" stroke-width="0.7" stroke-opacity="0.3" rx="2"/>
  <rect x="388.0" y="44.0" width="27.0" height="27.0" fill="#1b1b1b" fill-opacity="0.13" stroke="currentColor" stroke-width="0.7" stroke-opacity="0.3" rx="2"/>
  <rect x="30.0" y="74.0" width="27.0" height="27.0" fill="#3b528b" fill-opacity="0.4" stroke="currentColor" stroke-width="0.7" stroke-opacity="0.3" rx="2"/>
  <rect x="268.0" y="74.0" width="27.0" height="27.0" fill="#1b1b1b" fill-opacity="0.13" stroke="currentColor" stroke-width="0.7" stroke-opacity="0.3" rx="2"/>
  <rect x="60.0" y="74.0" width="27.0" height="27.0" fill="#5ec962" fill-opacity="0.4" stroke="currentColor" stroke-width="0.7" stroke-opacity="0.3" rx="2"/>
  <rect x="298.0" y="74.0" width="27.0" height="27.0" fill="#1b1b1b" fill-opacity="0.16" stroke="currentColor" stroke-width="0.7" stroke-opacity="0.3" rx="2"/>
  <rect x="90.0" y="74.0" width="27.0" height="27.0" fill="#440154" fill-opacity="0.4" stroke="currentColor" stroke-width="0.7" stroke-opacity="0.3" rx="2"/>
  <rect x="328.0" y="74.0" width="27.0" height="27.0" fill="#1b1b1b" fill-opacity="0.1" stroke="currentColor" stroke-width="0.7" stroke-opacity="0.3" rx="2"/>
  <rect x="120.0" y="74.0" width="27.0" height="27.0" fill="#21918c" fill-opacity="0.85" stroke="#1b1b1b" stroke-width="1.6" stroke-opacity="0.9" rx="2"/>
  <rect x="358.0" y="74.0" width="27.0" height="27.0" fill="#1b1b1b" fill-opacity="0.13" stroke="currentColor" stroke-width="0.7" stroke-opacity="0.3" rx="2"/>
  <rect x="150.0" y="74.0" width="27.0" height="27.0" fill="#fde725" fill-opacity="0.4" stroke="currentColor" stroke-width="0.7" stroke-opacity="0.3" rx="2"/>
  <rect x="388.0" y="74.0" width="27.0" height="27.0" fill="#1b1b1b" fill-opacity="0.16" stroke="currentColor" stroke-width="0.7" stroke-opacity="0.3" rx="2"/>
  <rect x="30.0" y="104.0" width="27.0" height="27.0" fill="#21918c" fill-opacity="0.4" stroke="currentColor" stroke-width="0.7" stroke-opacity="0.3" rx="2"/>
  <rect x="268.0" y="104.0" width="27.0" height="27.0" fill="#1b1b1b" fill-opacity="0.16" stroke="currentColor" stroke-width="0.7" stroke-opacity="0.3" rx="2"/>
  <rect x="60.0" y="104.0" width="27.0" height="27.0" fill="#fde725" fill-opacity="0.4" stroke="currentColor" stroke-width="0.7" stroke-opacity="0.3" rx="2"/>
  <rect x="298.0" y="104.0" width="27.0" height="27.0" fill="#1b1b1b" fill-opacity="0.1" stroke="currentColor" stroke-width="1.6" stroke-opacity="0.9" rx="2"/>
  <rect x="90.0" y="104.0" width="27.0" height="27.0" fill="#3b528b" fill-opacity="0.4" stroke="currentColor" stroke-width="0.7" stroke-opacity="0.3" rx="2"/>
  <rect x="328.0" y="104.0" width="27.0" height="27.0" fill="#1b1b1b" fill-opacity="0.13" stroke="currentColor" stroke-width="0.7" stroke-opacity="0.3" rx="2"/>
  <rect x="120.0" y="104.0" width="27.0" height="27.0" fill="#5ec962" fill-opacity="0.4" stroke="currentColor" stroke-width="0.7" stroke-opacity="0.3" rx="2"/>
  <rect x="358.0" y="104.0" width="27.0" height="27.0" fill="#1b1b1b" fill-opacity="0.16" stroke="currentColor" stroke-width="0.7" stroke-opacity="0.3" rx="2"/>
  <rect x="150.0" y="104.0" width="27.0" height="27.0" fill="#440154" fill-opacity="0.4" stroke="currentColor" stroke-width="0.7" stroke-opacity="0.3" rx="2"/>
  <rect x="388.0" y="104.0" width="27.0" height="27.0" fill="#1b1b1b" fill-opacity="0.1" stroke="currentColor" stroke-width="0.7" stroke-opacity="0.3" rx="2"/>
  <rect x="30.0" y="134.0" width="27.0" height="27.0" fill="#5ec962" fill-opacity="0.4" stroke="currentColor" stroke-width="0.7" stroke-opacity="0.3" rx="2"/>
  <rect x="268.0" y="134.0" width="27.0" height="27.0" fill="#1b1b1b" fill-opacity="0.1" stroke="currentColor" stroke-width="0.7" stroke-opacity="0.3" rx="2"/>
  <rect x="60.0" y="134.0" width="27.0" height="27.0" fill="#440154" fill-opacity="0.4" stroke="currentColor" stroke-width="0.7" stroke-opacity="0.3" rx="2"/>
  <rect x="298.0" y="134.0" width="27.0" height="27.0" fill="#1b1b1b" fill-opacity="0.13" stroke="currentColor" stroke-width="0.7" stroke-opacity="0.3" rx="2"/>
  <rect x="90.0" y="134.0" width="27.0" height="27.0" fill="#21918c" fill-opacity="0.4" stroke="currentColor" stroke-width="0.7" stroke-opacity="0.3" rx="2"/>
  <rect x="328.0" y="134.0" width="27.0" height="27.0" fill="#1b1b1b" fill-opacity="0.16" stroke="currentColor" stroke-width="0.7" stroke-opacity="0.3" rx="2"/>
  <rect x="120.0" y="134.0" width="27.0" height="27.0" fill="#fde725" fill-opacity="0.4" stroke="currentColor" stroke-width="0.7" stroke-opacity="0.3" rx="2"/>
  <rect x="358.0" y="134.0" width="27.0" height="27.0" fill="#1b1b1b" fill-opacity="0.1" stroke="currentColor" stroke-width="0.7" stroke-opacity="0.3" rx="2"/>
  <rect x="150.0" y="134.0" width="27.0" height="27.0" fill="#3b528b" fill-opacity="0.4" stroke="currentColor" stroke-width="0.7" stroke-opacity="0.3" rx="2"/>
  <rect x="388.0" y="134.0" width="27.0" height="27.0" fill="#1b1b1b" fill-opacity="0.13" stroke="currentColor" stroke-width="0.7" stroke-opacity="0.3" rx="2"/>
  <text x="105.0" y="184.0" font-size="11.5" fill="currentColor" text-anchor="middle" fill-opacity="0.7">colours cᵢ — values only</text>
  <text x="343.0" y="184.0" font-size="11.5" fill="currentColor" text-anchor="middle" fill-opacity="0.7">no colour anywhere in the input</text>
  <line x1="311.5" y1="117.5" x2="149.4" y2="96.3" stroke="#3b528b" stroke-width="1.8" stroke-opacity="0.9"/>
  <polygon points="143.5,95.5 149.8,93.6 149.1,99.0" fill="#3b528b" fill-opacity="0.9" stroke="none" stroke-width="1.0" stroke-opacity="1.0"/>
  <text x="222.5" y="212.0" font-size="11.5" fill="#3b528b" text-anchor="middle" fill-opacity="0.95">the pointer Aᵢⱼ — a softmax over every reference location</text>
  <rect x="30.0" y="250.0" width="130.0" height="46.0" fill="#3b528b" fill-opacity="0.16" stroke="currentColor" stroke-width="0.9" stroke-opacity="0.4" rx="3"/>
  <text x="95.0" y="270.0" font-size="12" fill="currentColor" text-anchor="middle">CNN embeddings</text>
  <text x="95.0" y="286.0" font-size="12" fill="currentColor" text-anchor="middle" font-style="italic">fᵢ , fⱼ</text>
  <line x1="164.0" y1="273.0" x2="208.0" y2="273.0" stroke="currentColor" stroke-width="1.4" stroke-opacity="0.75"/>
  <polygon points="214.0,273.0 208.0,275.7 208.0,270.3" fill="currentColor" fill-opacity="0.75" stroke="none" stroke-width="1.0" stroke-opacity="1.0"/>
  <rect x="218.0" y="250.0" width="130.0" height="46.0" fill="#21918c" fill-opacity="0.16" stroke="currentColor" stroke-width="0.9" stroke-opacity="0.4" rx="3"/>
  <text x="283.0" y="270.0" font-size="12" fill="currentColor" text-anchor="middle">similarity</text>
  <text x="283.0" y="286.0" font-size="12" fill="currentColor" text-anchor="middle" font-style="italic">softmax → A</text>
  <line x1="352.0" y1="273.0" x2="396.0" y2="273.0" stroke="currentColor" stroke-width="1.4" stroke-opacity="0.75"/>
  <polygon points="402.0,273.0 396.0,275.7 396.0,270.3" fill="currentColor" fill-opacity="0.75" stroke="none" stroke-width="1.0" stroke-opacity="1.0"/>
  <rect x="406.0" y="250.0" width="150.0" height="46.0" fill="#5ec962" fill-opacity="0.2" stroke="currentColor" stroke-width="0.9" stroke-opacity="0.4" rx="3"/>
  <text x="481.0" y="270.0" font-size="12" fill="currentColor" text-anchor="middle">weighted sum</text>
  <text x="481.0" y="286.0" font-size="12" fill="currentColor" text-anchor="middle" font-style="italic">yⱼ = Σᵢ Aᵢⱼ cᵢ</text>
  <line x1="560.0" y1="273.0" x2="604.0" y2="273.0" stroke="currentColor" stroke-width="1.4" stroke-opacity="0.75"/>
  <polygon points="610.0,273.0 604.0,275.7 604.0,270.3" fill="currentColor" fill-opacity="0.75" stroke="none" stroke-width="1.0" stroke-opacity="1.0"/>
  <text x="616.0" y="270.0" font-size="12" fill="currentColor" text-anchor="start">predicted</text>
  <text x="616.0" y="288.0" font-size="12" fill="currentColor" text-anchor="start">colour</text>
  <text x="20.0" y="330.0" font-size="11.5" fill="currentColor" text-anchor="start" fill-opacity="0.65">Colour enters only at the last step, so the loss can be reduced only by fixing A.</text>
</svg>
